<svg version="1.1" id="Layer_1" xmlns="http://www.w3.org/2000/svg" xmlns:xlink="http://www.w3.org/1999/xlink" x="0px" y="0px"
	 width="100%" viewBox="0 0 1460 712" enable-background="new 0 0 1460 712" xml:space="preserve">
<path fill="#FEFEFE" opacity="1.000000" stroke="none" 
	d="
M849.000000,713.000000 
	C566.032471,713.000000 283.564941,713.000000 1.048697,713.000000 
	C1.048697,475.726410 1.048697,238.452820 1.048697,1.089607 
	C487.550964,1.089607 974.101990,1.089607 1460.826416,1.089607 
	C1460.826416,238.333237 1460.826416,475.666595 1460.826416,713.000000 
	C1257.119263,713.000000 1053.309570,713.000000 849.000000,713.000000 
M196.499847,189.490204 
	C246.187714,189.490204 295.875580,189.490204 345.523346,189.490204 
	C345.523346,174.604111 345.523346,160.691605 345.523346,146.663284 
	C261.850739,146.663284 178.523148,146.663284 95.214859,146.663284 
	C95.214859,161.062958 95.214859,175.099701 95.214859,189.489578 
	C128.924622,189.489578 162.212219,189.489578 196.499847,189.490204 
M151.500214,339.289398 
	C147.667603,339.289398 143.834152,339.341888 140.002563,339.279297 
	C129.418518,339.106445 130.816254,341.103912 130.543671,329.636353 
	C130.462952,326.240112 131.753860,325.371918 134.908859,325.444000 
	C142.403305,325.615295 149.904327,325.498566 157.402695,325.498413 
	C163.513397,325.498260 169.624100,325.498383 175.877075,325.498383 
	C175.877075,316.317871 175.877075,307.767151 175.877075,298.861816 
	C162.197800,298.861816 148.881546,298.622498 135.580765,298.972076 
	C129.739151,299.125610 130.778976,295.532684 130.570023,292.100220 
	C130.341263,288.342468 130.617859,285.882996 135.673096,286.020142 
	C148.660721,286.372528 161.664246,286.137848 174.661423,286.137787 
	C177.258865,286.137756 179.856323,286.137787 182.450027,286.137787 
	C182.450027,276.516266 182.450027,267.646545 182.450027,258.698242 
	C153.100647,258.698242 124.191833,258.698242 95.032471,258.698242 
	C95.032471,294.979828 95.032471,330.917999 95.032471,367.038055 
	C124.940865,367.038055 154.690231,367.038055 184.867966,367.038055 
	C184.867966,358.950775 184.724915,351.143097 184.933502,343.344818 
	C185.025879,339.891113 183.604507,339.176758 180.493103,339.231140 
	C171.164658,339.394165 161.831512,339.289612 151.500214,339.289398 
M715.711792,331.579071 
	C718.053894,316.349640 714.863708,302.032227 703.531921,291.810791 
	C688.534058,278.282440 671.069214,276.621704 652.832153,287.952118 
	C653.207275,282.292206 650.070129,281.998535 646.166260,282.115509 
	C639.008179,282.330048 631.827454,282.422699 624.678894,282.084900 
	C620.354797,281.880585 618.998962,283.067657 619.024414,287.596069 
	C619.219910,322.417816 619.128113,357.241180 619.144287,392.064026 
	C619.145020,393.652344 619.325500,395.240601 619.427063,396.907410 
	C631.182617,396.907410 642.428894,396.907410 654.358032,396.907410 
	C654.358032,385.557709 654.358032,374.525543 654.358032,362.091614 
	C667.686340,371.109375 680.773071,370.394226 693.511230,364.457489 
	C706.863586,358.234528 713.806885,346.952759 715.711792,331.579071 
M505.811676,350.325775 
	C502.146057,355.729919 498.480438,361.134033 494.297852,367.300354 
	C508.099640,367.300354 521.058228,367.365845 534.013428,367.184692 
	C535.133362,367.169067 536.552246,365.731934 537.284668,364.600616 
	C541.137756,358.648773 544.767761,352.553040 548.575073,346.570831 
	C550.176697,344.054352 552.023804,341.694092 554.224792,338.610596 
	C559.584778,347.062500 564.478027,354.564117 569.129883,362.212524 
	C571.160217,365.550781 573.229980,367.680634 577.701172,367.454681 
	C586.176758,367.026337 594.689453,367.330719 603.186707,367.330719 
	C606.606262,367.330719 610.025818,367.330719 614.383850,367.330719 
	C602.715637,350.778198 591.951416,335.019928 580.616089,319.683716 
	C576.465027,314.067535 573.639343,310.370026 579.719421,303.488190 
	C588.406860,293.655182 595.271790,282.209198 602.881531,271.428345 
	C605.770203,267.335876 608.565857,263.177765 611.884766,258.350220 
	C600.205994,258.350220 589.711792,258.581573 579.236206,258.241791 
	C574.747131,258.096191 571.615479,259.291595 569.451782,263.229126 
	C568.108643,265.673279 566.590027,268.030548 565.020569,270.338684 
	C561.721130,275.191132 558.336243,279.985504 554.632812,285.312408 
	C549.161194,277.126556 544.086487,269.736298 539.251770,262.192261 
	C537.561523,259.554810 535.729980,258.217865 532.428040,258.278748 
	C521.934998,258.472168 511.436066,258.332306 500.939606,258.372620 
	C499.572266,258.377869 498.206055,258.683014 496.297180,258.915192 
	C497.162384,260.475342 497.558838,261.359406 498.100983,262.142639 
	C507.354309,275.510895 516.626831,288.865845 525.892639,302.225525 
	C532.784302,312.162018 532.941223,312.272217 525.963623,322.407745 
	C519.593506,331.660828 512.829346,340.642639 505.811676,350.325775 
M327.826569,337.522156 
	C328.195801,331.561066 328.158142,325.538361 329.048645,319.656189 
	C329.940430,313.765259 335.346924,310.227295 341.527222,310.573730 
	C346.972198,310.878937 349.903595,313.917938 350.671143,320.411438 
	C351.002106,323.211609 350.980988,326.062317 350.987823,328.890381 
	C351.018250,341.524017 351.001068,354.157715 351.001068,366.959839 
	C362.847229,366.959839 374.239258,366.959839 385.700623,366.959839 
	C385.700623,348.787689 385.726807,330.983246 385.688324,313.178955 
	C385.671967,305.619385 383.126648,298.767181 378.758026,292.769379 
	C370.330292,281.198700 354.735168,278.927765 342.223419,281.920807 
	C337.531860,283.043121 333.167847,285.534485 328.148834,287.610840 
	C328.028015,285.714630 327.845642,284.134979 327.840271,282.554688 
	C327.811432,274.058380 327.566895,265.550720 327.930908,257.069916 
	C328.126953,252.502411 326.530701,251.399979 322.230988,251.582321 
	C314.415009,251.913773 306.567841,251.875473 298.747498,251.599960 
	C294.234344,251.440979 292.730499,252.820709 292.757599,257.554291 
	C292.957031,292.371918 292.865417,327.191162 292.865448,362.009918 
	C292.865448,363.625671 292.865448,365.241394 292.865448,366.896484 
	C304.816650,366.896484 316.185822,366.896484 327.826508,366.896484 
	C327.826508,357.149933 327.826508,347.832581 327.826569,337.522156 
M1064.516235,367.327087 
	C1071.429932,367.327087 1078.343628,367.327087 1085.394287,367.327087 
	C1085.394287,353.745605 1085.250854,340.925293 1085.486694,328.112000 
	C1085.552612,324.532104 1086.274170,320.800873 1087.518921,317.444672 
	C1089.358765,312.484283 1094.866577,309.832947 1100.083984,310.650482 
	C1104.977661,311.417297 1108.104248,314.910034 1108.247559,320.981171 
	C1108.569336,334.623810 1108.524292,348.275116 1108.624634,361.922913 
	C1108.637573,363.669464 1108.626465,365.416168 1108.626465,367.046570 
	C1120.651001,367.046570 1131.916138,367.046570 1143.256836,367.046570 
	C1143.256836,347.990387 1143.581665,329.205048 1143.036377,310.445007 
	C1142.893799,305.545227 1140.745850,300.334747 1138.307373,295.939056 
	C1130.594238,282.035614 1112.608765,278.106873 1099.155762,282.311249 
	C1093.942993,283.940338 1089.061401,286.628845 1083.966187,288.862274 
	C1083.779663,286.822906 1083.588013,284.728851 1083.388184,282.543945 
	C1072.337646,282.543945 1061.630737,282.543945 1050.782471,282.543945 
	C1050.782471,310.932495 1050.782471,338.957611 1050.782471,367.327026 
	C1055.250488,367.327026 1059.387573,367.327026 1064.516235,367.327087 
M464.673248,365.993317 
	C476.781006,362.953217 485.921021,355.634277 491.846832,345.018463 
	C503.389252,324.340698 494.863403,298.115601 473.858673,287.146942 
	C460.523468,280.183319 446.538330,279.232819 432.320221,282.747070 
	C420.197693,285.743408 410.244537,292.608765 403.892639,303.573578 
	C393.673889,321.213440 397.595184,347.392242 417.759644,359.913055 
	C432.488373,369.058624 447.692749,370.393433 464.673248,365.993317 
M1039.166382,321.868774 
	C1038.880615,313.362274 1036.500366,305.629120 1031.351929,298.694275 
	C1022.819824,287.201416 1010.998169,281.941193 997.237793,281.064301 
	C979.782104,279.951996 964.590820,284.870483 953.296265,299.267334 
	C945.442688,309.278198 943.845398,320.561340 945.686707,332.600555 
	C947.606506,345.153503 954.617859,354.343262 965.360474,360.857697 
	C980.054688,369.768494 995.923828,370.417542 1012.117126,366.918823 
	C1020.050354,365.204803 1027.496582,361.910248 1032.941406,354.293701 
	C1027.768677,349.256104 1022.633728,344.515686 1017.827026,339.462921 
	C1015.458252,336.972778 1013.556213,337.062225 1010.968079,338.907349 
	C1005.164368,343.044891 998.422729,343.479218 991.861084,342.122894 
	C987.181152,341.155548 982.433228,339.056885 980.783508,332.714661 
	C1000.311340,332.714661 1019.379761,332.714661 1039.168091,332.714661 
	C1039.168091,329.004791 1039.168091,325.878235 1039.166382,321.868774 
M1306.974487,281.590363 
	C1300.216431,281.777557 1293.364624,281.315979 1286.718628,282.277618 
	C1269.147339,284.820007 1253.845947,298.563293 1250.931152,316.372772 
	C1248.092041,333.719757 1253.050171,348.472534 1267.918823,359.070618 
	C1280.053589,367.720093 1293.733765,369.790558 1308.121460,368.455383 
	C1319.577271,367.392273 1330.056641,363.868134 1338.614624,354.454742 
	C1333.657959,349.685791 1328.707642,345.275543 1324.199829,340.451874 
	C1321.546509,337.612671 1319.505005,336.671600 1315.906982,339.082245 
	C1308.904297,343.773865 1301.180908,343.502655 1293.432495,341.036835 
	C1289.660156,339.836365 1287.401001,337.302521 1286.844238,332.743561 
	C1289.003662,332.743561 1290.804321,332.743622 1292.605103,332.743530 
	C1308.421509,332.742706 1324.238525,332.679077 1340.054077,332.795197 
	C1343.137573,332.817810 1344.957520,332.020966 1344.581665,328.682526 
	C1343.845825,322.144501 1344.063110,315.258667 1341.994873,309.157898 
	C1336.539551,293.066071 1324.043945,284.851562 1306.974487,281.590363 
M801.235535,345.262085 
	C799.591187,343.611115 797.801514,342.078766 796.335693,340.282166 
	C793.958923,337.369080 791.961975,336.841370 788.467957,339.239990 
	C781.121582,344.283295 772.929688,343.610260 765.122681,340.349121 
	C762.627686,339.306946 760.918457,336.383850 758.849670,334.321381 
	C759.154480,333.795410 759.459290,333.269409 759.764099,332.743439 
	C761.519897,332.743439 763.275696,332.743500 765.031494,332.743469 
	C780.861206,332.743256 796.690857,332.731995 812.520569,332.754303 
	C814.953308,332.757721 817.821594,332.842865 817.418335,329.486115 
	C816.476013,321.641174 816.531006,313.230652 813.541321,306.166870 
	C806.536316,289.616180 792.417297,282.260956 774.953918,281.053375 
	C756.825928,279.799805 741.142456,285.551819 730.438477,300.399933 
	C715.339172,321.345093 723.369751,351.184265 746.496948,362.751801 
	C760.309814,369.660583 774.980896,370.359406 789.778381,367.029510 
	C797.858337,365.211243 805.513367,361.996185 810.805115,354.538544 
	C807.715088,351.543884 804.729065,348.649963 801.235535,345.262085 
M1170.157715,292.648926 
	C1168.287720,294.971497 1166.525391,297.391357 1164.529907,299.600525 
	C1152.770264,312.618805 1153.492554,336.894135 1164.222900,350.326416 
	C1170.204590,357.814240 1177.757080,362.559113 1186.850708,365.499573 
	C1202.461548,370.547333 1217.761475,370.461639 1231.912720,361.952789 
	C1237.324463,358.698822 1241.295044,352.891418 1245.515991,347.903595 
	C1246.895996,346.272949 1247.388794,343.350769 1244.476562,341.956451 
	C1236.480103,338.127716 1228.421143,334.429230 1220.436890,330.702576 
	C1214.517334,339.849121 1209.086792,342.583405 1201.167725,340.608948 
	C1195.939453,339.305389 1192.112915,333.347961 1191.665039,325.814026 
	C1191.224609,318.405792 1194.823853,311.065979 1200.127319,309.325775 
	C1209.798096,306.152496 1216.031738,310.772644 1220.387207,319.297180 
	C1228.726440,315.169189 1236.776855,311.333527 1244.617554,307.108459 
	C1245.568115,306.596252 1246.144287,303.665344 1245.610107,302.395233 
	C1241.469116,292.549347 1233.600952,286.475220 1223.719971,283.528198 
	C1204.790039,277.882355 1186.964722,280.593445 1170.157715,292.648926 
M231.780273,313.559692 
	C234.675278,309.837799 238.671432,308.666504 243.181000,308.368896 
	C251.000778,307.852814 254.249680,313.981659 258.033569,318.761658 
	C266.273132,314.833344 274.023224,311.052155 281.855988,307.450745 
	C284.604279,306.187073 284.578705,304.557800 283.354370,302.265991 
	C279.565216,295.173065 274.308899,289.454315 267.056702,285.958130 
	C251.761215,278.584412 236.149887,279.228882 220.691818,285.289337 
	C208.191391,290.190216 198.724152,298.760590 195.319855,311.981750 
	C193.600876,318.657684 193.495483,326.140900 194.423218,333.021454 
	C196.134308,345.711792 203.187210,355.495544 214.590134,361.521515 
	C227.918259,368.564941 242.197784,370.818665 256.919586,367.220245 
	C268.432037,364.406311 277.954895,358.517456 283.207733,347.111145 
	C284.448669,344.416504 284.011230,343.372772 281.477142,342.171112 
	C274.883423,339.044342 268.356903,335.763275 261.915588,332.333344 
	C258.997864,330.779755 257.368134,330.273224 255.433380,334.055756 
	C252.398438,339.989288 245.678314,342.247162 239.110809,340.651489 
	C233.904175,339.386505 229.537094,334.512573 229.384171,328.195251 
	C229.271973,323.560272 230.649918,318.889191 231.780273,313.559692 
M828.510620,343.499786 
	C828.510620,351.263794 828.510620,359.027802 828.510620,366.902832 
	C840.531189,366.902832 851.908875,366.902832 863.580872,366.902832 
	C863.580872,363.989258 863.546936,361.501221 863.586731,359.014374 
	C863.770630,347.532257 863.792786,336.043335 864.243835,324.571411 
	C864.494019,318.208008 869.468933,313.118927 875.734192,312.245575 
	C880.063354,311.642151 884.444336,311.409698 888.996704,310.993683 
	C888.996704,301.060577 888.996704,291.145325 888.996704,280.952881 
	C878.966064,280.462280 870.437988,283.657562 862.796204,289.832550 
	C860.850586,282.176666 860.850586,282.176636 852.612183,282.176636 
	C846.447327,282.176605 840.260376,282.496918 834.124695,282.074158 
	C829.316162,281.742828 828.352722,283.570465 828.411194,288.017151 
	C828.649780,306.175323 828.510803,324.338470 828.510620,343.499786 
M933.879089,361.274902 
	C933.879089,335.169678 933.879089,309.064423 933.879089,282.585205 
	C922.061157,282.585205 910.710754,282.585205 899.145386,282.585205 
	C899.145386,310.918671 899.145386,338.841370 899.145386,366.996307 
	C910.746216,366.996307 922.146118,366.996307 933.878845,366.996307 
	C933.878845,365.178375 933.878845,363.695557 933.879089,361.274902 
M572.496155,482.492859 
	C572.496582,486.320251 572.611694,490.152130 572.461243,493.973572 
	C572.340271,497.045593 573.688477,498.222534 576.633362,498.022156 
	C578.124146,497.920685 579.643250,497.863708 581.121887,498.030975 
	C584.407898,498.402618 585.510803,496.999298 585.516968,493.768707 
	C585.529663,487.133911 585.588257,480.474945 586.159424,473.871918 
	C586.808960,466.364014 590.356567,463.179321 596.728821,463.506866 
	C602.836548,463.820801 605.167053,466.901276 605.237854,475.006531 
	C605.302979,482.459869 605.251709,489.914215 605.251709,498.002625 
	C608.581238,498.002625 611.380554,497.796234 614.136353,498.054352 
	C617.660278,498.384399 618.888123,496.994965 618.782654,493.538239 
	C618.529114,485.229065 618.790771,476.896881 618.326233,468.602997 
	C617.408569,452.217316 600.527710,449.117096 590.735168,453.811615 
	C589.343994,454.478546 587.946411,455.131897 585.545227,456.267609 
	C585.545227,448.694092 585.545227,442.164185 585.545227,435.083710 
	C582.546509,435.083710 580.222900,435.323242 577.967468,435.032867 
	C573.551208,434.464233 572.294312,436.131104 572.389465,440.561920 
	C572.682373,454.201019 572.496399,467.850403 572.496155,482.492859 
M785.766663,453.691589 
	C781.693115,453.040619 777.619507,452.389648 773.115295,451.669830 
	C773.115295,463.076447 772.516418,473.413910 773.304626,483.644501 
	C773.936218,491.842529 780.931885,497.093597 789.182739,498.124298 
	C795.322266,498.891205 800.533813,497.133636 805.679016,493.326599 
	C805.982727,500.368469 810.920227,497.498962 814.191467,498.005615 
	C817.607849,498.534729 818.984802,496.978973 818.951355,493.490021 
	C818.835022,481.327454 818.851135,469.162689 818.939636,456.999664 
	C818.963745,453.680328 817.865234,451.921936 814.302185,452.238861 
	C812.814331,452.371185 811.285522,452.415161 809.809021,452.230316 
	C806.138611,451.770813 804.829468,453.099884 804.962708,456.937103 
	C805.199463,463.751404 805.176270,470.606384 804.696167,477.404419 
	C804.274170,483.380096 800.050476,487.119232 795.105042,486.796600 
	C789.310608,486.418549 786.431946,483.438141 786.221497,476.980621 
	C785.977417,469.490662 786.057617,461.990173 785.766663,453.691589 
M749.413452,476.369904 
	C759.913086,476.370361 759.916809,476.370117 759.272339,466.704407 
	C759.253113,466.416016 758.967834,466.145325 758.422424,465.201843 
	C749.927979,465.201843 741.042908,465.201843 731.780457,465.201843 
	C731.780457,461.075378 731.939941,457.605591 731.734863,454.157501 
	C731.536011,450.813507 733.029358,449.773224 736.151062,449.839935 
	C741.971313,449.964386 747.796082,449.870880 753.619019,449.872986 
	C763.480103,449.876526 763.623108,449.715271 762.485840,439.718964 
	C762.469116,439.572662 762.334717,439.439758 762.119019,439.062286 
	C747.704285,439.062286 733.154846,439.062286 718.610291,439.062286 
	C718.610291,458.804565 718.610291,478.191162 718.610291,498.027222 
	C721.409546,498.027222 723.910156,497.762299 726.332886,498.084045 
	C730.960388,498.698486 732.146667,496.566589 731.834167,492.384399 
	C731.562256,488.744629 731.996765,485.051788 731.720154,481.412720 
	C731.411682,477.356812 733.171265,476.107391 736.964905,476.322998 
	C740.778992,476.539734 744.615112,476.369843 749.413452,476.369904 
M228.715805,498.009674 
	C231.782684,498.106720 232.196228,496.143036 232.127243,493.710907 
	C231.872726,484.740570 231.815506,475.761139 231.367172,466.800964 
	C231.030396,460.070129 225.737640,454.461731 219.231155,452.679169 
	C212.022232,450.704163 205.500290,452.175537 199.503174,456.399353 
	C196.205978,449.257904 190.787659,453.418579 186.233307,452.163330 
	C186.233307,467.797180 186.233307,482.661224 186.233307,498.008514 
	C188.766342,498.008514 190.916214,497.838562 193.029755,498.043457 
	C197.614609,498.487854 199.807770,497.102386 199.405823,491.950653 
	C198.953644,486.155365 199.209976,480.295563 199.328918,474.467316 
	C199.474960,467.312012 203.810379,463.001251 210.422806,463.209808 
	C215.666275,463.375122 218.403549,467.104309 218.468216,474.278473 
	C218.511780,479.109222 218.454910,483.940765 218.481171,488.771729 
	C218.537796,499.188477 217.318954,497.931763 228.715805,498.009674 
M162.072067,454.404755 
	C153.933472,449.900482 146.110321,451.466248 138.335327,455.958221 
	C135.120239,449.374786 129.696426,453.321228 125.039978,452.202698 
	C125.039978,467.779266 125.039978,482.673950 125.039978,497.513000 
	C137.788757,499.211853 137.763840,499.211761 137.801285,487.211426 
	C137.815826,482.550018 137.727112,477.868378 138.119736,473.232758 
	C138.707382,466.294525 142.439331,463.244537 149.394684,463.499359 
	C154.662155,463.692322 157.457306,467.215515 157.577942,473.876740 
	C157.623184,476.375000 157.585571,478.874725 157.585602,481.373779 
	C157.585648,486.793640 157.585617,492.213501 157.585617,498.001404 
	C161.246262,498.001404 164.052505,497.947571 166.855804,498.015533 
	C170.087067,498.093872 171.197479,496.567993 171.121155,493.400909 
	C170.956619,486.574097 171.439255,479.714691 170.963882,472.917114 
	C170.480331,466.002716 169.965210,458.773926 162.072067,454.404755 
M873.349060,463.533386 
	C873.349731,468.689789 873.218079,473.850342 873.378723,479.001770 
	C873.708069,489.563782 877.980103,494.913269 887.330444,497.565918 
	C893.957275,499.445953 899.716797,497.615936 905.193726,494.196075 
	C908.180054,498.411011 911.438416,499.108429 918.852478,497.229614 
	C918.852478,482.384430 918.852478,467.509003 918.852478,452.636597 
	C914.418030,452.636597 910.356201,452.636597 905.817993,452.636597 
	C905.817993,455.956421 905.914001,458.927643 905.797729,461.890503 
	C905.564026,467.843628 905.642151,473.855438 904.774353,479.722198 
	C904.107422,484.231354 899.237732,487.264862 894.781433,486.776306 
	C890.304626,486.285553 887.379028,483.928711 887.029785,479.173981 
	C886.714478,474.880035 886.438293,470.578583 886.325317,466.275696 
	C886.205566,461.713654 886.298462,457.146027 886.298462,452.708008 
	C881.479187,452.708008 877.590820,452.708008 873.349365,452.708008 
	C873.349365,456.271759 873.349365,459.410187 873.349060,463.533386 
M395.987183,468.352905 
	C394.784332,461.446594 391.911163,455.725281 384.733521,453.387634 
	C375.441589,450.361328 366.390442,451.432129 357.689484,455.609802 
	C356.744965,456.063263 355.695679,457.598175 355.737854,458.586945 
	C355.943604,463.411255 359.682404,465.464691 364.231384,464.101105 
	C369.722382,462.455200 375.538605,460.201813 380.457428,465.437775 
	C381.449768,466.494049 381.684662,468.261902 382.268799,469.701660 
	C380.964569,470.122314 379.684357,470.787933 378.351715,470.918488 
	C374.069550,471.338013 369.737640,471.334473 365.480743,471.908264 
	C358.186829,472.891418 354.210693,476.916351 353.732178,483.304230 
	C353.204315,490.350983 356.639069,494.939453 363.639862,497.228577 
	C370.819153,499.576080 377.255524,498.584412 383.384247,493.293793 
	C384.160034,500.883759 389.653778,497.794403 393.259918,497.838409 
	C397.438751,497.889374 395.917480,493.987854 395.970428,491.661774 
	C396.140625,484.183319 396.029236,476.698425 395.987183,468.352905 
M450.655426,488.843933 
	C461.744568,500.992096 481.125366,501.980469 489.889252,490.784943 
	C489.394440,489.962372 488.978058,489.042114 488.361359,488.285065 
	C485.876923,485.235260 483.937042,482.862427 479.063507,485.941650 
	C474.591522,488.767151 468.709290,488.230408 463.965576,485.113922 
	C462.222870,483.968994 461.302185,481.572968 459.226318,478.648438 
	C471.687225,478.648438 482.440948,478.648438 493.406586,478.648438 
	C494.537415,468.920197 491.880554,461.009125 484.064209,455.755157 
	C477.117920,451.085999 469.170288,450.378937 461.243408,453.277679 
	C447.768494,458.205292 441.528809,474.469208 450.655426,488.843933 
M636.411499,459.901489 
	C627.971619,469.745178 629.638672,485.450104 638.721130,492.496002 
	C650.129211,501.345886 668.862366,499.940796 674.868958,490.628113 
	C674.106689,489.718353 673.242737,488.756195 672.455505,487.735016 
	C669.937683,484.468811 667.801086,484.033936 663.412842,485.894989 
	C659.389282,487.601379 653.803711,486.362762 649.115417,485.401917 
	C647.231628,485.015869 645.905334,481.909546 644.325317,480.041321 
	C644.598083,479.599762 644.870850,479.158234 645.143555,478.716675 
	C650.569092,478.716675 655.994568,478.716644 661.420105,478.716644 
	C666.862061,478.716644 672.304077,478.716675 677.890808,478.716675 
	C678.743835,472.296722 677.906433,466.839905 674.561584,461.643890 
	C667.807129,451.151123 648.823486,446.935852 636.411499,459.901489 
M980.756714,455.261230 
	C971.383606,461.514709 968.107178,470.274811 970.664612,481.070892 
	C972.888245,490.458374 979.654419,495.995819 988.569458,497.687378 
	C997.512939,499.384369 1006.805054,499.414703 1013.576416,491.008240 
	C1012.931030,489.940491 1012.518433,489.017365 1011.895447,488.269470 
	C1009.399231,485.272736 1007.478333,482.927643 1002.607300,485.951843 
	C998.171387,488.705902 992.250183,488.335358 987.510193,485.122223 
	C985.760559,483.936218 984.807129,481.575653 982.744446,478.716675 
	C989.696899,478.716675 995.002014,478.716644 1000.307129,478.716644 
	C1005.772766,478.716644 1011.238403,478.716675 1017.019775,478.716675 
	C1018.105347,468.901062 1015.467285,460.662170 1007.347839,455.607269 
	C999.205078,450.537842 990.202393,449.904694 980.756714,455.261230 
M271.950775,498.315704 
	C273.402313,497.971375 274.863861,497.664429 276.303833,497.277039 
	C292.887329,492.815460 297.705353,475.038849 289.961548,462.449249 
	C283.772430,452.387207 270.608276,450.170898 260.952423,452.825012 
	C245.836227,456.979950 240.366730,474.238464 246.962494,485.831146 
	C252.405777,495.398224 260.790619,498.545380 271.950775,498.315704 
M896.621643,251.266724 
	C894.239685,262.771942 897.196899,269.370605 906.942139,273.570648 
	C912.464417,275.950653 918.246826,275.447052 923.979553,274.237640 
	C931.047791,272.746490 936.183350,266.491302 937.260132,258.107635 
	C938.030884,252.106552 934.423157,245.835678 928.588684,242.660660 
	C919.781738,237.868011 904.598755,237.923080 896.621643,251.266724 
M337.524780,479.544495 
	C341.361267,470.677368 345.197723,461.810211 349.155151,452.663574 
	C334.908569,452.053680 337.273651,450.412048 332.464752,462.058929 
	C329.796661,468.520966 326.870728,474.876556 323.770660,481.941864 
	C322.615265,479.996033 321.871124,479.065186 321.464203,478.004913 
	C318.928284,471.397217 316.650879,464.682648 313.881134,458.176605 
	C312.937897,455.960999 311.146606,453.146057 309.161591,452.554169 
	C306.000458,451.611633 302.352356,452.302399 297.662079,452.302399 
	C304.232819,468.106934 310.416168,482.979706 316.539093,497.707062 
	C329.376862,498.831421 329.386261,498.835510 334.272522,487.599457 
	C335.324768,485.179749 336.282196,482.718842 337.524780,479.544495 
M428.501465,453.227936 
	C424.579559,452.169647 426.673096,448.853180 425.919617,446.588623 
	C425.405304,445.042847 424.401947,442.681458 423.305481,442.492371 
	C420.106415,441.940704 416.750885,442.296417 413.180664,442.296417 
	C412.935150,446.193115 412.722748,449.564301 412.513062,452.892334 
	C410.021881,453.236969 408.100800,453.502747 406.271484,453.755829 
	C405.150635,462.005981 405.150635,462.005981 412.530090,464.441010 
	C412.859406,471.412231 413.254120,478.365570 413.497681,485.324219 
	C413.733002,492.047882 417.907745,495.712402 423.644714,497.397461 
	C429.260406,499.046844 435.100250,499.275696 440.031281,495.124847 
	C439.089844,489.616425 437.663940,485.377563 430.608948,487.270630 
	C429.608948,487.538971 426.454742,484.176636 426.278687,482.308105 
	C425.710266,476.275177 426.066742,470.155121 426.066742,463.775421 
	C430.069458,463.586548 433.464630,463.426392 437.003845,463.259399 
	C437.003845,459.812225 437.003845,456.877350 437.003845,453.296356 
	C434.340088,453.296356 431.898865,453.296356 428.501465,453.227936 
M544.229248,497.254120 
	C548.621582,497.319122 553.046692,497.702850 557.386536,497.256989 
	C558.707520,497.121246 561.009949,494.393921 560.756165,493.381714 
	C560.032471,490.494934 560.560913,485.861694 554.809204,487.090668 
	C550.491150,488.013306 547.579224,485.778870 547.354187,481.512329 
	C547.050598,475.756012 547.278809,469.971680 547.278809,463.822357 
	C551.189026,463.622375 554.592102,463.448364 558.247620,463.261414 
	C558.247620,459.875793 558.247620,456.825806 558.247620,453.818085 
	C554.676392,453.354919 550.406860,454.022186 548.512512,452.208527 
	C546.657227,450.432281 547.220947,446.129364 546.678589,442.651489 
	C542.684875,442.651489 538.650085,442.651489 534.642761,442.651489 
	C532.808655,447.000702 537.633667,455.187683 527.736450,453.552887 
	C526.271301,461.959259 526.283875,461.980652 534.120911,464.564667 
	C534.120911,468.938660 533.925720,473.432861 534.164551,477.903870 
	C534.571716,485.526764 534.443359,493.536346 544.229248,497.254120 
M858.789307,453.627838 
	C858.304138,453.527771 857.821777,453.357422 857.333374,453.338104 
	C849.656616,453.034119 849.765808,453.020599 848.560059,445.701904 
	C848.354004,444.451202 846.875793,442.604309 845.790894,442.456085 
	C842.601501,442.020294 839.314209,442.300659 836.208252,442.300659 
	C834.869141,452.528748 834.869141,452.528748 828.904907,454.080841 
	C827.738342,461.956848 827.738342,461.956848 835.683533,464.569244 
	C835.683533,470.269470 835.928467,476.088959 835.635681,481.881256 
	C834.881836,496.797058 850.102661,500.823608 858.766785,497.129150 
	C860.306763,496.472473 862.503540,493.496552 862.190857,493.010315 
	C860.688354,490.673706 861.374695,485.754028 855.932617,487.269196 
	C851.790649,488.422333 849.159302,486.452118 849.001465,481.917389 
	C848.856873,477.763245 849.068542,473.575348 848.612671,469.458893 
	C848.072083,464.577240 849.929443,462.703552 854.669495,463.521240 
	C859.054565,464.277740 860.318787,462.129608 859.768311,458.178894 
	C859.586182,456.871948 859.519348,455.548889 858.789307,453.627838 
M943.966064,452.271301 
	C942.802979,452.268433 941.621155,452.399353 940.480164,452.239258 
	C935.821106,451.585449 933.887695,453.213623 934.219666,458.214203 
	C934.636963,464.500305 934.319824,470.835175 934.319824,477.148987 
	C934.319763,483.916229 934.319824,490.683472 934.319824,497.645386 
	C938.979919,497.645386 942.998352,497.645386 947.497681,497.645386 
	C947.497681,495.131134 947.419617,492.992950 947.512268,490.862213 
	C947.785461,484.580597 947.808289,478.264618 948.540283,472.033844 
	C949.137878,466.946594 952.726501,464.369171 957.764282,463.852234 
	C959.198853,463.705017 960.636353,463.586212 962.049500,463.456482 
	C962.049500,459.429047 962.049500,455.728607 962.049500,450.999603 
	C956.936401,452.563385 952.473145,453.928467 948.235901,455.224365 
	C947.176270,454.323181 945.998657,453.321686 943.966064,452.271301 
M108.408592,450.530365 
	C108.408592,446.749023 108.408592,442.967682 108.408592,439.101105 
	C103.575790,439.101105 99.344353,439.101105 95.266731,439.101105 
	C95.266731,458.799957 95.266731,478.153656 95.266731,497.839111 
	C98.066811,497.839111 100.414589,497.580383 102.683754,497.892761 
	C107.458122,498.549988 108.586403,496.472931 108.501144,491.992340 
	C108.244507,478.505890 108.408432,465.011475 108.408592,450.530365 
z"/>
<path fill="#DA514A" opacity="1.000000" stroke="none" 
	d="
M195.999832,189.489899 
	C162.212219,189.489578 128.924622,189.489578 95.214859,189.489578 
	C95.214859,175.099701 95.214859,161.062958 95.214859,146.663284 
	C178.523148,146.663284 261.850739,146.663284 345.523346,146.663284 
	C345.523346,160.691605 345.523346,174.604111 345.523346,189.490204 
	C295.875580,189.490204 246.187714,189.490204 195.999832,189.489899 
z"/>
<path fill="#232323" opacity="1.000000" stroke="none" 
	d="
M152.000214,339.289429 
	C161.831512,339.289612 171.164658,339.394165 180.493103,339.231140 
	C183.604507,339.176758 185.025879,339.891113 184.933502,343.344818 
	C184.724915,351.143097 184.867966,358.950775 184.867966,367.038055 
	C154.690231,367.038055 124.940865,367.038055 95.032471,367.038055 
	C95.032471,330.917999 95.032471,294.979828 95.032471,258.698242 
	C124.191833,258.698242 153.100647,258.698242 182.450027,258.698242 
	C182.450027,267.646545 182.450027,276.516266 182.450027,286.137787 
	C179.856323,286.137787 177.258865,286.137756 174.661423,286.137787 
	C161.664246,286.137848 148.660721,286.372528 135.673096,286.020142 
	C130.617859,285.882996 130.341263,288.342468 130.570023,292.100220 
	C130.778976,295.532684 129.739151,299.125610 135.580765,298.972076 
	C148.881546,298.622498 162.197800,298.861816 175.877075,298.861816 
	C175.877075,307.767151 175.877075,316.317871 175.877075,325.498383 
	C169.624100,325.498383 163.513397,325.498260 157.402695,325.498413 
	C149.904327,325.498566 142.403305,325.615295 134.908859,325.444000 
	C131.753860,325.371918 130.462952,326.240112 130.543671,329.636353 
	C130.816254,341.103912 129.418518,339.106445 140.002563,339.279297 
	C143.834152,339.341888 147.667603,339.289398 152.000214,339.289429 
z"/>
<path fill="#232323" opacity="1.000000" stroke="none" 
	d="
M715.687988,332.017700 
	C713.806885,346.952759 706.863586,358.234528 693.511230,364.457489 
	C680.773071,370.394226 667.686340,371.109375 654.358032,362.091614 
	C654.358032,374.525543 654.358032,385.557709 654.358032,396.907410 
	C642.428894,396.907410 631.182617,396.907410 619.427063,396.907410 
	C619.325500,395.240601 619.145020,393.652344 619.144287,392.064026 
	C619.128113,357.241180 619.219910,322.417816 619.024414,287.596069 
	C618.998962,283.067657 620.354797,281.880585 624.678894,282.084900 
	C631.827454,282.422699 639.008179,282.330048 646.166260,282.115509 
	C650.070129,281.998535 653.207275,282.292206 652.832153,287.952118 
	C671.069214,276.621704 688.534058,278.282440 703.531921,291.810791 
	C714.863708,302.032227 718.053894,316.349640 715.687988,332.017700 
M674.739685,310.619049 
	C666.593323,305.846863 658.711304,308.316132 655.388855,316.903137 
	C654.394897,319.472229 653.847168,322.304352 653.616272,325.059662 
	C653.115417,331.037048 657.314819,338.674927 661.761780,340.463196 
	C666.756409,342.471741 673.332764,340.806763 677.256775,336.732849 
	C682.580688,331.205597 682.406616,315.852448 674.739685,310.619049 
z"/>
<path fill="#232323" opacity="1.000000" stroke="none" 
	d="
M506.025269,350.034851 
	C512.829346,340.642639 519.593506,331.660828 525.963623,322.407745 
	C532.941223,312.272217 532.784302,312.162018 525.892639,302.225525 
	C516.626831,288.865845 507.354309,275.510895 498.100983,262.142639 
	C497.558838,261.359406 497.162384,260.475342 496.297180,258.915192 
	C498.206055,258.683014 499.572266,258.377869 500.939606,258.372620 
	C511.436066,258.332306 521.934998,258.472168 532.428040,258.278748 
	C535.729980,258.217865 537.561523,259.554810 539.251770,262.192261 
	C544.086487,269.736298 549.161194,277.126556 554.632812,285.312408 
	C558.336243,279.985504 561.721130,275.191132 565.020569,270.338684 
	C566.590027,268.030548 568.108643,265.673279 569.451782,263.229126 
	C571.615479,259.291595 574.747131,258.096191 579.236206,258.241791 
	C589.711792,258.581573 600.205994,258.350220 611.884766,258.350220 
	C608.565857,263.177765 605.770203,267.335876 602.881531,271.428345 
	C595.271790,282.209198 588.406860,293.655182 579.719421,303.488190 
	C573.639343,310.370026 576.465027,314.067535 580.616089,319.683716 
	C591.951416,335.019928 602.715637,350.778198 614.383850,367.330719 
	C610.025818,367.330719 606.606262,367.330719 603.186707,367.330719 
	C594.689453,367.330719 586.176758,367.026337 577.701172,367.454681 
	C573.229980,367.680634 571.160217,365.550781 569.129883,362.212524 
	C564.478027,354.564117 559.584778,347.062500 554.224792,338.610596 
	C552.023804,341.694092 550.176697,344.054352 548.575073,346.570831 
	C544.767761,352.553040 541.137756,358.648773 537.284668,364.600616 
	C536.552246,365.731934 535.133362,367.169067 534.013428,367.184692 
	C521.058228,367.365845 508.099640,367.300354 494.297852,367.300354 
	C498.480438,361.134033 502.146057,355.729919 506.025269,350.034851 
z"/>
<path fill="#222222" opacity="1.000000" stroke="none" 
	d="
M327.826538,338.018677 
	C327.826508,347.832581 327.826508,357.149933 327.826508,366.896484 
	C316.185822,366.896484 304.816650,366.896484 292.865448,366.896484 
	C292.865448,365.241394 292.865448,363.625671 292.865448,362.009918 
	C292.865417,327.191162 292.957031,292.371918 292.757599,257.554291 
	C292.730499,252.820709 294.234344,251.440979 298.747498,251.599960 
	C306.567841,251.875473 314.415009,251.913773 322.230988,251.582321 
	C326.530701,251.399979 328.126953,252.502411 327.930908,257.069916 
	C327.566895,265.550720 327.811432,274.058380 327.840271,282.554688 
	C327.845642,284.134979 328.028015,285.714630 328.148834,287.610840 
	C333.167847,285.534485 337.531860,283.043121 342.223419,281.920807 
	C354.735168,278.927765 370.330292,281.198700 378.758026,292.769379 
	C383.126648,298.767181 385.671967,305.619385 385.688324,313.178955 
	C385.726807,330.983246 385.700623,348.787689 385.700623,366.959839 
	C374.239258,366.959839 362.847229,366.959839 351.001068,366.959839 
	C351.001068,354.157715 351.018250,341.524017 350.987823,328.890381 
	C350.980988,326.062317 351.002106,323.211609 350.671143,320.411438 
	C349.903595,313.917938 346.972198,310.878937 341.527222,310.573730 
	C335.346924,310.227295 329.940430,313.765259 329.048645,319.656189 
	C328.158142,325.538361 328.195801,331.561066 327.826538,338.018677 
z"/>
<path fill="#222222" opacity="1.000000" stroke="none" 
	d="
M1064.020508,367.327057 
	C1059.387573,367.327026 1055.250488,367.327026 1050.782471,367.327026 
	C1050.782471,338.957611 1050.782471,310.932495 1050.782471,282.543945 
	C1061.630737,282.543945 1072.337646,282.543945 1083.388184,282.543945 
	C1083.588013,284.728851 1083.779663,286.822906 1083.966187,288.862274 
	C1089.061401,286.628845 1093.942993,283.940338 1099.155762,282.311249 
	C1112.608765,278.106873 1130.594238,282.035614 1138.307373,295.939056 
	C1140.745850,300.334747 1142.893799,305.545227 1143.036377,310.445007 
	C1143.581665,329.205048 1143.256836,347.990387 1143.256836,367.046570 
	C1131.916138,367.046570 1120.651001,367.046570 1108.626465,367.046570 
	C1108.626465,365.416168 1108.637573,363.669464 1108.624634,361.922913 
	C1108.524292,348.275116 1108.569336,334.623810 1108.247559,320.981171 
	C1108.104248,314.910034 1104.977661,311.417297 1100.083984,310.650482 
	C1094.866577,309.832947 1089.358765,312.484283 1087.518921,317.444672 
	C1086.274170,320.800873 1085.552612,324.532104 1085.486694,328.112000 
	C1085.250854,340.925293 1085.394287,353.745605 1085.394287,367.327087 
	C1078.343628,367.327087 1071.429932,367.327087 1064.020508,367.327057 
z"/>
<path fill="#232323" opacity="1.000000" stroke="none" 
	d="
M464.312073,366.178375 
	C447.692749,370.393433 432.488373,369.058624 417.759644,359.913055 
	C397.595184,347.392242 393.673889,321.213440 403.892639,303.573578 
	C410.244537,292.608765 420.197693,285.743408 432.320221,282.747070 
	C446.538330,279.232819 460.523468,280.183319 473.858673,287.146942 
	C494.863403,298.115601 503.389252,324.340698 491.846832,345.018463 
	C485.921021,355.634277 476.781006,362.953217 464.312073,366.178375 
M451.683136,340.661407 
	C461.426300,336.306122 464.598541,321.437317 457.602936,312.914551 
	C452.802032,307.065613 443.736847,306.636963 438.292786,312.001434 
	C433.882141,316.347565 432.292114,326.680725 435.590149,332.982239 
	C439.050293,339.593506 441.980103,341.856781 451.683136,340.661407 
z"/>
<path fill="#242424" opacity="1.000000" stroke="none" 
	d="
M1039.167236,322.310242 
	C1039.168091,325.878235 1039.168091,329.004791 1039.168091,332.714661 
	C1019.379761,332.714661 1000.311340,332.714661 980.783508,332.714661 
	C982.433228,339.056885 987.181152,341.155548 991.861084,342.122894 
	C998.422729,343.479218 1005.164368,343.044891 1010.968079,338.907349 
	C1013.556213,337.062225 1015.458252,336.972778 1017.827026,339.462921 
	C1022.633728,344.515686 1027.768677,349.256104 1032.941406,354.293701 
	C1027.496582,361.910248 1020.050354,365.204803 1012.117126,366.918823 
	C995.923828,370.417542 980.054688,369.768494 965.360474,360.857697 
	C954.617859,354.343262 947.606506,345.153503 945.686707,332.600555 
	C943.845398,320.561340 945.442688,309.278198 953.296265,299.267334 
	C964.590820,284.870483 979.782104,279.951996 997.237793,281.064301 
	C1010.998169,281.941193 1022.819824,287.201416 1031.351929,298.694275 
	C1036.500366,305.629120 1038.880615,313.362274 1039.167236,322.310242 
M981.569641,311.146179 
	C981.084900,312.465454 980.600159,313.784760 979.990845,315.443298 
	C988.916199,315.443298 997.241577,315.443298 1005.571899,315.443298 
	C1005.430664,310.316193 1002.320251,306.672272 997.033508,305.069519 
	C991.558594,303.409729 985.033997,305.719818 981.569641,311.146179 
z"/>
<path fill="#242424" opacity="1.000000" stroke="none" 
	d="
M1307.418213,281.600647 
	C1324.043945,284.851562 1336.539551,293.066071 1341.994873,309.157898 
	C1344.063110,315.258667 1343.845825,322.144501 1344.581665,328.682526 
	C1344.957520,332.020966 1343.137573,332.817810 1340.054077,332.795197 
	C1324.238525,332.679077 1308.421509,332.742706 1292.605103,332.743530 
	C1290.804321,332.743622 1289.003662,332.743561 1286.844238,332.743561 
	C1287.401001,337.302521 1289.660156,339.836365 1293.432495,341.036835 
	C1301.180908,343.502655 1308.904297,343.773865 1315.906982,339.082245 
	C1319.505005,336.671600 1321.546509,337.612671 1324.199829,340.451874 
	C1328.707642,345.275543 1333.657959,349.685791 1338.614624,354.454742 
	C1330.056641,363.868134 1319.577271,367.392273 1308.121460,368.455383 
	C1293.733765,369.790558 1280.053589,367.720093 1267.918823,359.070618 
	C1253.050171,348.472534 1248.092041,333.719757 1250.931152,316.372772 
	C1253.845947,298.563293 1269.147339,284.820007 1286.718628,282.277618 
	C1293.364624,281.315979 1300.216431,281.777557 1307.418213,281.600647 
M1290.626831,307.048218 
	C1288.615479,309.533325 1286.604126,312.018433 1283.840210,315.433289 
	C1294.277710,315.433289 1302.806396,315.433289 1311.437012,315.433289 
	C1308.591797,305.388214 1301.028687,302.228210 1290.626831,307.048218 
z"/>
<path fill="#242424" opacity="1.000000" stroke="none" 
	d="
M801.489258,345.509064 
	C804.729065,348.649963 807.715088,351.543884 810.805115,354.538544 
	C805.513367,361.996185 797.858337,365.211243 789.778381,367.029510 
	C774.980896,370.359406 760.309814,369.660583 746.496948,362.751801 
	C723.369751,351.184265 715.339172,321.345093 730.438477,300.399933 
	C741.142456,285.551819 756.825928,279.799805 774.953918,281.053375 
	C792.417297,282.260956 806.536316,289.616180 813.541321,306.166870 
	C816.531006,313.230652 816.476013,321.641174 817.418335,329.486115 
	C817.821594,332.842865 814.953308,332.757721 812.520569,332.754303 
	C796.690857,332.731995 780.861206,332.743256 765.031494,332.743469 
	C763.275696,332.743500 761.519897,332.743439 759.764099,332.743439 
	C759.459290,333.269409 759.154480,333.795410 758.849670,334.321381 
	C760.918457,336.383850 762.627686,339.306946 765.122681,340.349121 
	C772.929688,343.610260 781.121582,344.283295 788.467957,339.239990 
	C791.961975,336.841370 793.958923,337.369080 796.335693,340.282166 
	C797.801514,342.078766 799.591187,343.611115 801.489258,345.509064 
M760.847351,309.419037 
	C759.840393,311.336609 758.833435,313.254181 757.658752,315.491089 
	C767.116028,315.491089 775.649902,315.491089 784.215271,315.491089 
	C782.788391,303.868195 768.032043,301.170044 760.847351,309.419037 
z"/>
<path fill="#242424" opacity="1.000000" stroke="none" 
	d="
M1170.456421,292.457336 
	C1186.964722,280.593445 1204.790039,277.882355 1223.719971,283.528198 
	C1233.600952,286.475220 1241.469116,292.549347 1245.610107,302.395233 
	C1246.144287,303.665344 1245.568115,306.596252 1244.617554,307.108459 
	C1236.776855,311.333527 1228.726440,315.169189 1220.387207,319.297180 
	C1216.031738,310.772644 1209.798096,306.152496 1200.127319,309.325775 
	C1194.823853,311.065979 1191.224609,318.405792 1191.665039,325.814026 
	C1192.112915,333.347961 1195.939453,339.305389 1201.167725,340.608948 
	C1209.086792,342.583405 1214.517334,339.849121 1220.436890,330.702576 
	C1228.421143,334.429230 1236.480103,338.127716 1244.476562,341.956451 
	C1247.388794,343.350769 1246.895996,346.272949 1245.515991,347.903595 
	C1241.295044,352.891418 1237.324463,358.698822 1231.912720,361.952789 
	C1217.761475,370.461639 1202.461548,370.547333 1186.850708,365.499573 
	C1177.757080,362.559113 1170.204590,357.814240 1164.222900,350.326416 
	C1153.492554,336.894135 1152.770264,312.618805 1164.529907,299.600525 
	C1166.525391,297.391357 1168.287720,294.971497 1170.456421,292.457336 
z"/>
<path fill="#242424" opacity="1.000000" stroke="none" 
	d="
M231.572006,313.896973 
	C230.649918,318.889191 229.271973,323.560272 229.384171,328.195251 
	C229.537094,334.512573 233.904175,339.386505 239.110809,340.651489 
	C245.678314,342.247162 252.398438,339.989288 255.433380,334.055756 
	C257.368134,330.273224 258.997864,330.779755 261.915588,332.333344 
	C268.356903,335.763275 274.883423,339.044342 281.477142,342.171112 
	C284.011230,343.372772 284.448669,344.416504 283.207733,347.111145 
	C277.954895,358.517456 268.432037,364.406311 256.919586,367.220245 
	C242.197784,370.818665 227.918259,368.564941 214.590134,361.521515 
	C203.187210,355.495544 196.134308,345.711792 194.423218,333.021454 
	C193.495483,326.140900 193.600876,318.657684 195.319855,311.981750 
	C198.724152,298.760590 208.191391,290.190216 220.691818,285.289337 
	C236.149887,279.228882 251.761215,278.584412 267.056702,285.958130 
	C274.308899,289.454315 279.565216,295.173065 283.354370,302.265991 
	C284.578705,304.557800 284.604279,306.187073 281.855988,307.450745 
	C274.023224,311.052155 266.273132,314.833344 258.033569,318.761658 
	C254.249680,313.981659 251.000778,307.852814 243.181000,308.368896 
	C238.671432,308.666504 234.675278,309.837799 231.572006,313.896973 
z"/>
<path fill="#232323" opacity="1.000000" stroke="none" 
	d="
M828.510742,342.999786 
	C828.510803,324.338470 828.649780,306.175323 828.411194,288.017151 
	C828.352722,283.570465 829.316162,281.742828 834.124695,282.074158 
	C840.260376,282.496918 846.447327,282.176605 852.612183,282.176636 
	C860.850586,282.176636 860.850586,282.176666 862.796204,289.832550 
	C870.437988,283.657562 878.966064,280.462280 888.996704,280.952881 
	C888.996704,291.145325 888.996704,301.060577 888.996704,310.993683 
	C884.444336,311.409698 880.063354,311.642151 875.734192,312.245575 
	C869.468933,313.118927 864.494019,318.208008 864.243835,324.571411 
	C863.792786,336.043335 863.770630,347.532257 863.586731,359.014374 
	C863.546936,361.501221 863.580872,363.989258 863.580872,366.902832 
	C851.908875,366.902832 840.531189,366.902832 828.510620,366.902832 
	C828.510620,359.027802 828.510620,351.263794 828.510742,342.999786 
z"/>
<path fill="#242424" opacity="1.000000" stroke="none" 
	d="
M933.878967,361.743835 
	C933.878845,363.695557 933.878845,365.178375 933.878845,366.996307 
	C922.146118,366.996307 910.746216,366.996307 899.145386,366.996307 
	C899.145386,338.841370 899.145386,310.918671 899.145386,282.585205 
	C910.710754,282.585205 922.061157,282.585205 933.879089,282.585205 
	C933.879089,309.064423 933.879089,335.169678 933.878967,361.743835 
z"/>
<path fill="#2A2A2A" opacity="1.000000" stroke="none" 
	d="
M572.496338,481.994324 
	C572.496399,467.850403 572.682373,454.201019 572.389465,440.561920 
	C572.294312,436.131104 573.551208,434.464233 577.967468,435.032867 
	C580.222900,435.323242 582.546509,435.083710 585.545227,435.083710 
	C585.545227,442.164185 585.545227,448.694092 585.545227,456.267609 
	C587.946411,455.131897 589.343994,454.478546 590.735168,453.811615 
	C600.527710,449.117096 617.408569,452.217316 618.326233,468.602997 
	C618.790771,476.896881 618.529114,485.229065 618.782654,493.538239 
	C618.888123,496.994965 617.660278,498.384399 614.136353,498.054352 
	C611.380554,497.796234 608.581238,498.002625 605.251709,498.002625 
	C605.251709,489.914215 605.302979,482.459869 605.237854,475.006531 
	C605.167053,466.901276 602.836548,463.820801 596.728821,463.506866 
	C590.356567,463.179321 586.808960,466.364014 586.159424,473.871918 
	C585.588257,480.474945 585.529663,487.133911 585.516968,493.768707 
	C585.510803,496.999298 584.407898,498.402618 581.121887,498.030975 
	C579.643250,497.863708 578.124146,497.920685 576.633362,498.022156 
	C573.688477,498.222534 572.340271,497.045593 572.461243,493.973572 
	C572.611694,490.152130 572.496582,486.320251 572.496338,481.994324 
z"/>
<path fill="#2E2E2E" opacity="1.000000" stroke="none" 
	d="
M785.881836,454.092896 
	C786.057617,461.990173 785.977417,469.490662 786.221497,476.980621 
	C786.431946,483.438141 789.310608,486.418549 795.105042,486.796600 
	C800.050476,487.119232 804.274170,483.380096 804.696167,477.404419 
	C805.176270,470.606384 805.199463,463.751404 804.962708,456.937103 
	C804.829468,453.099884 806.138611,451.770813 809.809021,452.230316 
	C811.285522,452.415161 812.814331,452.371185 814.302185,452.238861 
	C817.865234,451.921936 818.963745,453.680328 818.939636,456.999664 
	C818.851135,469.162689 818.835022,481.327454 818.951355,493.490021 
	C818.984802,496.978973 817.607849,498.534729 814.191467,498.005615 
	C810.920227,497.498962 805.982727,500.368469 805.679016,493.326599 
	C800.533813,497.133636 795.322266,498.891205 789.182739,498.124298 
	C780.931885,497.093597 773.936218,491.842529 773.304626,483.644501 
	C772.516418,473.413910 773.115295,463.076447 773.115295,451.669830 
	C777.619507,452.389648 781.693115,453.040619 785.881836,454.092896 
z"/>
<path fill="#2E2E2E" opacity="1.000000" stroke="none" 
	d="
M748.927490,476.369629 
	C744.615112,476.369843 740.778992,476.539734 736.964905,476.322998 
	C733.171265,476.107391 731.411682,477.356812 731.720154,481.412720 
	C731.996765,485.051788 731.562256,488.744629 731.834167,492.384399 
	C732.146667,496.566589 730.960388,498.698486 726.332886,498.084045 
	C723.910156,497.762299 721.409546,498.027222 718.610291,498.027222 
	C718.610291,478.191162 718.610291,458.804565 718.610291,439.062286 
	C733.154846,439.062286 747.704285,439.062286 762.119019,439.062286 
	C762.334717,439.439758 762.469116,439.572662 762.485840,439.718964 
	C763.623108,449.715271 763.480103,449.876526 753.619019,449.872986 
	C747.796082,449.870880 741.971313,449.964386 736.151062,449.839935 
	C733.029358,449.773224 731.536011,450.813507 731.734863,454.157501 
	C731.939941,457.605591 731.780457,461.075378 731.780457,465.201843 
	C741.042908,465.201843 749.927979,465.201843 758.422424,465.201843 
	C758.967834,466.145325 759.253113,466.416016 759.272339,466.704407 
	C759.916809,476.370117 759.913086,476.370361 748.927490,476.369629 
z"/>
<path fill="#2B2B2B" opacity="1.000000" stroke="none" 
	d="
M228.312775,498.009155 
	C217.318954,497.931763 218.537796,499.188477 218.481171,488.771729 
	C218.454910,483.940765 218.511780,479.109222 218.468216,474.278473 
	C218.403549,467.104309 215.666275,463.375122 210.422806,463.209808 
	C203.810379,463.001251 199.474960,467.312012 199.328918,474.467316 
	C199.209976,480.295563 198.953644,486.155365 199.405823,491.950653 
	C199.807770,497.102386 197.614609,498.487854 193.029755,498.043457 
	C190.916214,497.838562 188.766342,498.008514 186.233307,498.008514 
	C186.233307,482.661224 186.233307,467.797180 186.233307,452.163330 
	C190.787659,453.418579 196.205978,449.257904 199.503174,456.399353 
	C205.500290,452.175537 212.022232,450.704163 219.231155,452.679169 
	C225.737640,454.461731 231.030396,460.070129 231.367172,466.800964 
	C231.815506,475.761139 231.872726,484.740570 232.127243,493.710907 
	C232.196228,496.143036 231.782684,498.106720 228.312775,498.009155 
z"/>
<path fill="#2A2A2A" opacity="1.000000" stroke="none" 
	d="
M162.367630,454.625854 
	C169.965210,458.773926 170.480331,466.002716 170.963882,472.917114 
	C171.439255,479.714691 170.956619,486.574097 171.121155,493.400909 
	C171.197479,496.567993 170.087067,498.093872 166.855804,498.015533 
	C164.052505,497.947571 161.246262,498.001404 157.585617,498.001404 
	C157.585617,492.213501 157.585648,486.793640 157.585602,481.373779 
	C157.585571,478.874725 157.623184,476.375000 157.577942,473.876740 
	C157.457306,467.215515 154.662155,463.692322 149.394684,463.499359 
	C142.439331,463.244537 138.707382,466.294525 138.119736,473.232758 
	C137.727112,477.868378 137.815826,482.550018 137.801285,487.211426 
	C137.763840,499.211761 137.788757,499.211853 125.039978,497.513000 
	C125.039978,482.673950 125.039978,467.779266 125.039978,452.202698 
	C129.696426,453.321228 135.120239,449.374786 138.335327,455.958221 
	C146.110321,451.466248 153.933472,449.900482 162.367630,454.625854 
z"/>
<path fill="#2A2A2A" opacity="1.000000" stroke="none" 
	d="
M873.349243,463.041016 
	C873.349365,459.410187 873.349365,456.271759 873.349365,452.708008 
	C877.590820,452.708008 881.479187,452.708008 886.298462,452.708008 
	C886.298462,457.146027 886.205566,461.713654 886.325317,466.275696 
	C886.438293,470.578583 886.714478,474.880035 887.029785,479.173981 
	C887.379028,483.928711 890.304626,486.285553 894.781433,486.776306 
	C899.237732,487.264862 904.107422,484.231354 904.774353,479.722198 
	C905.642151,473.855438 905.564026,467.843628 905.797729,461.890503 
	C905.914001,458.927643 905.817993,455.956421 905.817993,452.636597 
	C910.356201,452.636597 914.418030,452.636597 918.852478,452.636597 
	C918.852478,467.509003 918.852478,482.384430 918.852478,497.229614 
	C911.438416,499.108429 908.180054,498.411011 905.193726,494.196075 
	C899.716797,497.615936 893.957275,499.445953 887.330444,497.565918 
	C877.980103,494.913269 873.708069,489.563782 873.378723,479.001770 
	C873.218079,473.850342 873.349731,468.689789 873.349243,463.041016 
z"/>
<path fill="#2C2C2C" opacity="1.000000" stroke="none" 
	d="
M396.006836,468.784485 
	C396.029236,476.698425 396.140625,484.183319 395.970428,491.661774 
	C395.917480,493.987854 397.438751,497.889374 393.259918,497.838409 
	C389.653778,497.794403 384.160034,500.883759 383.384247,493.293793 
	C377.255524,498.584412 370.819153,499.576080 363.639862,497.228577 
	C356.639069,494.939453 353.204315,490.350983 353.732178,483.304230 
	C354.210693,476.916351 358.186829,472.891418 365.480743,471.908264 
	C369.737640,471.334473 374.069550,471.338013 378.351715,470.918488 
	C379.684357,470.787933 380.964569,470.122314 382.268799,469.701660 
	C381.684662,468.261902 381.449768,466.494049 380.457428,465.437775 
	C375.538605,460.201813 369.722382,462.455200 364.231384,464.101105 
	C359.682404,465.464691 355.943604,463.411255 355.737854,458.586945 
	C355.695679,457.598175 356.744965,456.063263 357.689484,455.609802 
	C366.390442,451.432129 375.441589,450.361328 384.733521,453.387634 
	C391.911163,455.725281 394.784332,461.446594 396.006836,468.784485 
M382.849182,479.406891 
	C378.768066,479.257904 374.639221,478.698761 370.629761,479.165405 
	C369.063232,479.347687 366.845306,481.700043 366.608124,483.311798 
	C366.379822,484.863586 367.902435,487.396942 369.391205,488.348846 
	C375.039978,491.960815 382.384338,487.485626 382.849182,479.406891 
z"/>
<path fill="#2E2E2E" opacity="1.000000" stroke="none" 
	d="
M450.465881,488.537109 
	C441.528809,474.469208 447.768494,458.205292 461.243408,453.277679 
	C469.170288,450.378937 477.117920,451.085999 484.064209,455.755157 
	C491.880554,461.009125 494.537415,468.920197 493.406586,478.648438 
	C482.440948,478.648438 471.687225,478.648438 459.226318,478.648438 
	C461.302185,481.572968 462.222870,483.968994 463.965576,485.113922 
	C468.709290,488.230408 474.591522,488.767151 479.063507,485.941650 
	C483.937042,482.862427 485.876923,485.235260 488.361359,488.285065 
	C488.978058,489.042114 489.394440,489.962372 489.889252,490.784943 
	C481.125366,501.980469 461.744568,500.992096 450.465881,488.537109 
M469.502563,471.200317 
	C473.080383,471.200317 476.658203,471.200317 480.229034,471.200317 
	C480.163879,465.148224 476.578522,461.938904 470.570648,461.778229 
	C464.846252,461.625122 460.799194,465.059357 460.167450,471.200500 
	C462.994232,471.200500 465.762695,471.200500 469.502563,471.200317 
z"/>
<path fill="#2D2D2D" opacity="1.000000" stroke="none" 
	d="
M636.560913,459.579773 
	C648.823486,446.935852 667.807129,451.151123 674.561584,461.643890 
	C677.906433,466.839905 678.743835,472.296722 677.890808,478.716675 
	C672.304077,478.716675 666.862061,478.716644 661.420105,478.716644 
	C655.994568,478.716644 650.569092,478.716675 645.143555,478.716675 
	C644.870850,479.158234 644.598083,479.599762 644.325317,480.041321 
	C645.905334,481.909546 647.231628,485.015869 649.115417,485.401917 
	C653.803711,486.362762 659.389282,487.601379 663.412842,485.894989 
	C667.801086,484.033936 669.937683,484.468811 672.455505,487.735016 
	C673.242737,488.756195 674.106689,489.718353 674.868958,490.628113 
	C668.862366,499.940796 650.129211,501.345886 638.721130,492.496002 
	C629.638672,485.450104 627.971619,469.745178 636.560913,459.579773 
M655.471313,471.206329 
	C658.542603,471.206329 661.613892,471.206329 664.669678,471.206329 
	C664.678284,465.144531 661.456055,462.027557 655.761169,461.805328 
	C649.425781,461.558075 645.420044,464.671692 644.769958,471.206482 
	C648.060364,471.206482 651.279724,471.206482 655.471313,471.206329 
z"/>
<path fill="#2D2D2D" opacity="1.000000" stroke="none" 
	d="
M981.098755,455.124084 
	C990.202393,449.904694 999.205078,450.537842 1007.347839,455.607269 
	C1015.467285,460.662170 1018.105347,468.901062 1017.019775,478.716675 
	C1011.238403,478.716675 1005.772766,478.716644 1000.307129,478.716644 
	C995.002014,478.716644 989.696899,478.716675 982.744446,478.716675 
	C984.807129,481.575653 985.760559,483.936218 987.510193,485.122223 
	C992.250183,488.335358 998.171387,488.705902 1002.607300,485.951843 
	C1007.478333,482.927643 1009.399231,485.272736 1011.895447,488.269470 
	C1012.518433,489.017365 1012.931030,489.940491 1013.576416,491.008240 
	C1006.805054,499.414703 997.512939,499.384369 988.569458,497.687378 
	C979.654419,495.995819 972.888245,490.458374 970.664612,481.070892 
	C968.107178,470.274811 971.383606,461.514709 981.098755,455.124084 
M1000.212280,471.205414 
	C1001.496338,470.715454 1003.655640,470.455414 1003.858887,469.681519 
	C1004.162170,468.527344 1003.390564,466.771790 1002.542175,465.691467 
	C999.522278,461.845947 995.247070,461.063354 990.840210,462.209778 
	C986.808716,463.258514 983.852173,465.814728 983.287598,471.206360 
	C988.772156,471.206360 994.024536,471.206360 1000.212280,471.205414 
z"/>
<path fill="#2A2A2A" opacity="1.000000" stroke="none" 
	d="
M271.520508,498.353699 
	C260.790619,498.545380 252.405777,495.398224 246.962494,485.831146 
	C240.366730,474.238464 245.836227,456.979950 260.952423,452.825012 
	C270.608276,450.170898 283.772430,452.387207 289.961548,462.449249 
	C297.705353,475.038849 292.887329,492.815460 276.303833,497.277039 
	C274.863861,497.664429 273.402313,497.971375 271.520508,498.353699 
M263.128571,485.762756 
	C268.059784,488.134399 272.950195,488.132874 276.917389,484.188507 
	C280.962158,480.167023 281.136932,474.806213 279.399048,469.791626 
	C277.895508,465.453247 274.315094,462.707916 269.493011,462.736664 
	C264.809662,462.764557 260.753998,464.225464 258.759216,469.144501 
	C256.201355,475.452057 257.330719,480.554688 263.128571,485.762756 
z"/>
<path fill="#252525" opacity="1.000000" stroke="none" 
	d="
M896.680725,250.889862 
	C904.598755,237.923080 919.781738,237.868011 928.588684,242.660660 
	C934.423157,245.835678 938.030884,252.106552 937.260132,258.107635 
	C936.183350,266.491302 931.047791,272.746490 923.979553,274.237640 
	C918.246826,275.447052 912.464417,275.950653 906.942139,273.570648 
	C897.196899,269.370605 894.239685,262.771942 896.680725,250.889862 
z"/>
<path fill="#2D2D2D" opacity="1.000000" stroke="none" 
	d="
M337.404053,479.910706 
	C336.282196,482.718842 335.324768,485.179749 334.272522,487.599457 
	C329.386261,498.835510 329.376862,498.831421 316.539093,497.707062 
	C310.416168,482.979706 304.232819,468.106934 297.662079,452.302399 
	C302.352356,452.302399 306.000458,451.611633 309.161591,452.554169 
	C311.146606,453.146057 312.937897,455.960999 313.881134,458.176605 
	C316.650879,464.682648 318.928284,471.397217 321.464203,478.004913 
	C321.871124,479.065186 322.615265,479.996033 323.770660,481.941864 
	C326.870728,474.876556 329.796661,468.520966 332.464752,462.058929 
	C337.273651,450.412048 334.908569,452.053680 349.155151,452.663574 
	C345.197723,461.810211 341.361267,470.677368 337.404053,479.910706 
z"/>
<path fill="#2D2D2D" opacity="1.000000" stroke="none" 
	d="
M428.979553,453.262146 
	C431.898865,453.296356 434.340088,453.296356 437.003845,453.296356 
	C437.003845,456.877350 437.003845,459.812225 437.003845,463.259399 
	C433.464630,463.426392 430.069458,463.586548 426.066742,463.775421 
	C426.066742,470.155121 425.710266,476.275177 426.278687,482.308105 
	C426.454742,484.176636 429.608948,487.538971 430.608948,487.270630 
	C437.663940,485.377563 439.089844,489.616425 440.031281,495.124847 
	C435.100250,499.275696 429.260406,499.046844 423.644714,497.397461 
	C417.907745,495.712402 413.733002,492.047882 413.497681,485.324219 
	C413.254120,478.365570 412.859406,471.412231 412.530090,464.441010 
	C405.150635,462.005981 405.150635,462.005981 406.271484,453.755829 
	C408.100800,453.502747 410.021881,453.236969 412.513062,452.892334 
	C412.722748,449.564301 412.935150,446.193115 413.180664,442.296417 
	C416.750885,442.296417 420.106415,441.940704 423.305481,442.492371 
	C424.401947,442.681458 425.405304,445.042847 425.919617,446.588623 
	C426.673096,448.853180 424.579559,452.169647 428.979553,453.262146 
z"/>
<path fill="#2E2E2E" opacity="1.000000" stroke="none" 
	d="
M543.892456,497.080383 
	C534.443359,493.536346 534.571716,485.526764 534.164551,477.903870 
	C533.925720,473.432861 534.120911,468.938660 534.120911,464.564667 
	C526.283875,461.980652 526.271301,461.959259 527.736450,453.552887 
	C537.633667,455.187683 532.808655,447.000702 534.642761,442.651489 
	C538.650085,442.651489 542.684875,442.651489 546.678589,442.651489 
	C547.220947,446.129364 546.657227,450.432281 548.512512,452.208527 
	C550.406860,454.022186 554.676392,453.354919 558.247620,453.818085 
	C558.247620,456.825806 558.247620,459.875793 558.247620,463.261414 
	C554.592102,463.448364 551.189026,463.622375 547.278809,463.822357 
	C547.278809,469.971680 547.050598,475.756012 547.354187,481.512329 
	C547.579224,485.778870 550.491150,488.013306 554.809204,487.090668 
	C560.560913,485.861694 560.032471,490.494934 560.756165,493.381714 
	C561.009949,494.393921 558.707520,497.121246 557.386536,497.256989 
	C553.046692,497.702850 548.621582,497.319122 543.892456,497.080383 
z"/>
<path fill="#2E2E2E" opacity="1.000000" stroke="none" 
	d="
M859.094482,453.930542 
	C859.519348,455.548889 859.586182,456.871948 859.768311,458.178894 
	C860.318787,462.129608 859.054565,464.277740 854.669495,463.521240 
	C849.929443,462.703552 848.072083,464.577240 848.612671,469.458893 
	C849.068542,473.575348 848.856873,477.763245 849.001465,481.917389 
	C849.159302,486.452118 851.790649,488.422333 855.932617,487.269196 
	C861.374695,485.754028 860.688354,490.673706 862.190857,493.010315 
	C862.503540,493.496552 860.306763,496.472473 858.766785,497.129150 
	C850.102661,500.823608 834.881836,496.797058 835.635681,481.881256 
	C835.928467,476.088959 835.683533,470.269470 835.683533,464.569244 
	C827.738342,461.956848 827.738342,461.956848 828.904907,454.080841 
	C834.869141,452.528748 834.869141,452.528748 836.208252,442.300659 
	C839.314209,442.300659 842.601501,442.020294 845.790894,442.456085 
	C846.875793,442.604309 848.354004,444.451202 848.560059,445.701904 
	C849.765808,453.020599 849.656616,453.034119 857.333374,453.338104 
	C857.821777,453.357422 858.304138,453.527771 859.094482,453.930542 
z"/>
<path fill="#2E2E2E" opacity="1.000000" stroke="none" 
	d="
M944.393555,452.295746 
	C945.998657,453.321686 947.176270,454.323181 948.235901,455.224365 
	C952.473145,453.928467 956.936401,452.563385 962.049500,450.999603 
	C962.049500,455.728607 962.049500,459.429047 962.049500,463.456482 
	C960.636353,463.586212 959.198853,463.705017 957.764282,463.852234 
	C952.726501,464.369171 949.137878,466.946594 948.540283,472.033844 
	C947.808289,478.264618 947.785461,484.580597 947.512268,490.862213 
	C947.419617,492.992950 947.497681,495.131134 947.497681,497.645386 
	C942.998352,497.645386 938.979919,497.645386 934.319824,497.645386 
	C934.319824,490.683472 934.319763,483.916229 934.319824,477.148987 
	C934.319824,470.835175 934.636963,464.500305 934.219666,458.214203 
	C933.887695,453.213623 935.821106,451.585449 940.480164,452.239258 
	C941.621155,452.399353 942.802979,452.268433 944.393555,452.295746 
z"/>
<path fill="#242424" opacity="1.000000" stroke="none" 
	d="
M108.408455,451.025269 
	C108.408432,465.011475 108.244507,478.505890 108.501144,491.992340 
	C108.586403,496.472931 107.458122,498.549988 102.683754,497.892761 
	C100.414589,497.580383 98.066811,497.839111 95.266731,497.839111 
	C95.266731,478.153656 95.266731,458.799957 95.266731,439.101105 
	C99.344353,439.101105 103.575790,439.101105 108.408592,439.101105 
	C108.408592,442.967682 108.408592,446.749023 108.408455,451.025269 
z"/>
<path fill="#F5F5F5" opacity="1.000000" stroke="none" 
	d="
M675.009277,310.883911 
	C682.406616,315.852448 682.580688,331.205597 677.256775,336.732849 
	C673.332764,340.806763 666.756409,342.471741 661.761780,340.463196 
	C657.314819,338.674927 653.115417,331.037048 653.616272,325.059662 
	C653.847168,322.304352 654.394897,319.472229 655.388855,316.903137 
	C658.711304,308.316132 666.593323,305.846863 675.009277,310.883911 
z"/>
<path fill="#F6F6F6" opacity="1.000000" stroke="none" 
	d="
M451.273773,340.720245 
	C441.980103,341.856781 439.050293,339.593506 435.590149,332.982239 
	C432.292114,326.680725 433.882141,316.347565 438.292786,312.001434 
	C443.736847,306.636963 452.802032,307.065613 457.602936,312.914551 
	C464.598541,321.437317 461.426300,336.306122 451.273773,340.720245 
z"/>
<path fill="#EAEAEA" opacity="1.000000" stroke="none" 
	d="
M981.709290,310.795990 
	C985.033997,305.719818 991.558594,303.409729 997.033508,305.069519 
	C1002.320251,306.672272 1005.430664,310.316193 1005.571899,315.443298 
	C997.241577,315.443298 988.916199,315.443298 979.990845,315.443298 
	C980.600159,313.784760 981.084900,312.465454 981.709290,310.795990 
z"/>
<path fill="#EAEAEA" opacity="1.000000" stroke="none" 
	d="
M1290.942139,306.851685 
	C1301.028687,302.228210 1308.591797,305.388214 1311.437012,315.433289 
	C1302.806396,315.433289 1294.277710,315.433289 1283.840210,315.433289 
	C1286.604126,312.018433 1288.615479,309.533325 1290.942139,306.851685 
z"/>
<path fill="#EAEAEA" opacity="1.000000" stroke="none" 
	d="
M761.104675,309.157501 
	C768.032043,301.170044 782.788391,303.868195 784.215271,315.491089 
	C775.649902,315.491089 767.116028,315.491089 757.658752,315.491089 
	C758.833435,313.254181 759.840393,311.336609 761.104675,309.157501 
z"/>
<path fill="#EAEAEA" opacity="1.000000" stroke="none" 
	d="
M382.976440,479.837402 
	C382.384338,487.485626 375.039978,491.960815 369.391205,488.348846 
	C367.902435,487.396942 366.379822,484.863586 366.608124,483.311798 
	C366.845306,481.700043 369.063232,479.347687 370.629761,479.165405 
	C374.639221,478.698761 378.768066,479.257904 382.976440,479.837402 
z"/>
<path fill="#EAEAEA" opacity="1.000000" stroke="none" 
	d="
M469.016846,471.200409 
	C465.762695,471.200500 462.994232,471.200500 460.167450,471.200500 
	C460.799194,465.059357 464.846252,461.625122 470.570648,461.778229 
	C476.578522,461.938904 480.163879,465.148224 480.229034,471.200317 
	C476.658203,471.200317 473.080383,471.200317 469.016846,471.200409 
z"/>
<path fill="#EAEAEA" opacity="1.000000" stroke="none" 
	d="
M654.985229,471.206421 
	C651.279724,471.206482 648.060364,471.206482 644.769958,471.206482 
	C645.420044,464.671692 649.425781,461.558075 655.761169,461.805328 
	C661.456055,462.027557 664.678284,465.144531 664.669678,471.206329 
	C661.613892,471.206329 658.542603,471.206329 654.985229,471.206421 
z"/>
<path fill="#EAEAEA" opacity="1.000000" stroke="none" 
	d="
M999.744629,471.205872 
	C994.024536,471.206360 988.772156,471.206360 983.287598,471.206360 
	C983.852173,465.814728 986.808716,463.258514 990.840210,462.209778 
	C995.247070,461.063354 999.522278,461.845947 1002.542175,465.691467 
	C1003.390564,466.771790 1004.162170,468.527344 1003.858887,469.681519 
	C1003.655640,470.455414 1001.496338,470.715454 999.744629,471.205872 
z"/>
<path fill="#F4F4F4" opacity="1.000000" stroke="none" 
	d="
M262.844299,485.482574 
	C257.330719,480.554688 256.201355,475.452057 258.759216,469.144501 
	C260.753998,464.225464 264.809662,462.764557 269.493011,462.736664 
	C274.315094,462.707916 277.895508,465.453247 279.399048,469.791626 
	C281.136932,474.806213 280.962158,480.167023 276.917389,484.188507 
	C272.950195,488.132874 268.059784,488.134399 262.844299,485.482574 
z"/>
</svg>